<?xml version="1.0" encoding="UTF-8" standalone="no"?>
<svg
   xmlns:dc="http://purl.org/dc/elements/1.1/"
   xmlns:cc="http://creativecommons.org/ns#"
   xmlns:rdf="http://www.w3.org/1999/02/22-rdf-syntax-ns#"
   xmlns:svg="http://www.w3.org/2000/svg"
   xmlns="http://www.w3.org/2000/svg"
   xmlns:sodipodi="http://sodipodi.sourceforge.net/DTD/sodipodi-0.dtd"
   xmlns:inkscape="http://www.inkscape.org/namespaces/inkscape"
   version="1.1"
   x="0px"
   y="0px"
   viewBox="0 0 64 64"
   style="enable-background:new 0 0 64 64;"
   xml:space="preserve"
   id="svg88"
   sodipodi:docname="baby.svg"
   inkscape:version="0.92.3 (2405546, 2018-03-11)"><metadata
   id="metadata94"><rdf:RDF><cc:Work
       rdf:about=""><dc:format>image/svg+xml</dc:format><dc:type
         rdf:resource="http://purl.org/dc/dcmitype/StillImage" /></cc:Work></rdf:RDF></metadata><defs
   id="defs92" /><sodipodi:namedview
   pagecolor="#ffffff"
   bordercolor="#666666"
   borderopacity="1"
   objecttolerance="10"
   gridtolerance="10"
   guidetolerance="10"
   inkscape:pageopacity="0"
   inkscape:pageshadow="2"
   inkscape:window-width="1920"
   inkscape:window-height="1052"
   id="namedview90"
   showgrid="false"
   inkscape:zoom="10.429825"
   inkscape:cx="10.168481"
   inkscape:cy="29.304302"
   inkscape:window-x="0"
   inkscape:window-y="0"
   inkscape:window-maximized="1"
   inkscape:current-layer="Layer_1" />
<g
   id="Layer_1">
	<g
   id="g4">
		<path
   style="fill:#efd8be"
   d="m 51,47.584 c 0.612,0.268 1.289,0.416 2,0.416 2.761,0 5,-2.239 5,-5 0,-2.05 -2,-4 -4,-2"
   id="path2"
   inkscape:connector-curvature="0" />
	</g>
	<g
   id="g8">
		<path
   style="fill:#8d6c9f"
   d="M 52,49 C 50.863,49 50.41,48.673 49.848,48.173 49.725,48.065 49.585,47.939 49.4,47.8 c -0.441,-0.332 -0.53,-0.959 -0.199,-1.4 0.331,-0.441 0.96,-0.529 1.4,-0.199 0.237,0.179 0.418,0.338 0.575,0.478 C 51.525,46.988 51.538,47 52,47 c 2.206,0 4,-1.794 4,-4 0,-0.77 -0.427,-1.55 -0.971,-1.775 -0.395,-0.162 -0.839,-0.001 -1.322,0.482 -0.391,0.391 -1.023,0.391 -1.414,0 -0.391,-0.391 -0.391,-1.023 0,-1.414 1.063,-1.062 2.341,-1.396 3.502,-0.916 C 57.093,39.915 58,41.405 58,43 c 0,3.309 -2.691,6 -6,6 z"
   id="path6"
   inkscape:connector-curvature="0" />
	</g>
	<g
   id="g12">
		<path
   style="fill:#efd8be"
   d="M 13,47.584 C 12.388,47.852 11.711,48 11,48 8.239,48 6,45.761 6,43 6,40.95 8,39 10,41"
   id="path10"
   inkscape:connector-curvature="0" />
	</g>
	<g
   id="g16">
		<path
   style="fill:#8d6c9f"
   d="m 12,49 c -3.309,0 -6,-2.691 -6,-6 0,-1.595 0.907,-3.085 2.205,-3.623 1.162,-0.479 2.438,-0.146 3.502,0.916 0.391,0.391 0.391,1.023 0,1.414 -0.391,0.391 -1.023,0.391 -1.414,0 C 9.81,41.224 9.366,41.061 8.971,41.225 8.427,41.45 8,42.23 8,43 c 0,2.206 1.794,4 4,4 0.462,0 0.475,-0.012 0.824,-0.322 0.157,-0.14 0.338,-0.299 0.575,-0.478 0.441,-0.33 1.069,-0.241 1.4,0.199 0.331,0.441 0.242,1.068 -0.199,1.4 -0.186,0.139 -0.325,0.265 -0.448,0.373 C 13.59,48.673 13.137,49 12,49 Z"
   id="path14"
   inkscape:connector-curvature="0" />
	</g>
	<g
   id="g20">
		<ellipse
   style="fill:#faefde"
   cx="32"
   cy="33.5"
   rx="23"
   ry="23.5"
   id="ellipse18" />
	</g>
	<g
   id="g24">
		<path
   style="fill:#8d6c9f"
   d="M 32,57 C 18.767,57 8,46.233 8,33 8,19.767 18.767,9 32,9 45.233,9 56,19.767 56,33 56,46.233 45.233,57 32,57 Z M 32,11 C 19.869,11 10,20.869 10,33 10,45.131 19.869,55 32,55 44.131,55 54,45.131 54,33 54,20.869 44.131,11 32,11 Z"
   id="path22"
   inkscape:connector-curvature="0" />
	</g>
	<g
   id="g56">
		<g
   id="g30">
			<g
   id="g28">
				<path
   style="fill:#8d6c9f"
   d="m 28.516,17.331 c -0.477,0 -0.898,-0.341 -0.983,-0.826 l -0.348,-1.97 c -0.097,-0.544 0.267,-1.062 0.811,-1.158 0.542,-0.103 1.062,0.267 1.158,0.811 l 0.348,1.97 c 0.097,0.544 -0.267,1.062 -0.811,1.158 -0.059,0.01 -0.118,0.015 -0.175,0.015 z"
   id="path26"
   inkscape:connector-curvature="0" />
			</g>
		</g>
		<g
   id="g36">
			<g
   id="g34">
				<path
   style="fill:#8d6c9f"
   d="m 23.851,18.88 c -0.367,0 -0.721,-0.203 -0.896,-0.554 l -0.893,-1.79 c -0.247,-0.494 -0.046,-1.095 0.448,-1.341 0.498,-0.248 1.096,-0.045 1.341,0.448 l 0.893,1.79 c 0.247,0.494 0.046,1.095 -0.448,1.341 C 24.152,18.847 24,18.88 23.851,18.88 Z"
   id="path32"
   inkscape:connector-curvature="0" />
			</g>
		</g>
		<g
   id="g42">
			<g
   id="g40">
				<path
   style="fill:#8d6c9f"
   d="m 19.819,21.688 c -0.266,0 -0.531,-0.105 -0.729,-0.315 l -1.37,-1.457 c -0.378,-0.402 -0.358,-1.035 0.044,-1.413 0.399,-0.378 1.033,-0.36 1.413,0.044 l 1.37,1.457 c 0.378,0.402 0.358,1.035 -0.044,1.413 -0.191,0.181 -0.438,0.271 -0.684,0.271 z"
   id="path38"
   inkscape:connector-curvature="0" />
			</g>
		</g>
		<g
   id="g48">
			<g
   id="g46">
				<path
   style="fill:#8d6c9f"
   d="m 16.767,25.539 c -0.171,0 -0.344,-0.044 -0.502,-0.136 l -1.729,-1.005 c -0.478,-0.277 -0.64,-0.89 -0.361,-1.367 0.277,-0.478 0.891,-0.638 1.367,-0.361 l 1.729,1.005 c 0.478,0.277 0.64,0.89 0.361,1.367 -0.186,0.319 -0.521,0.497 -0.865,0.497 z"
   id="path44"
   inkscape:connector-curvature="0" />
			</g>
		</g>
		<g
   id="g54">
			<g
   id="g52">
				<path
   style="fill:#8d6c9f"
   d="m 14.929,30.097 c -0.078,0 -0.157,-0.009 -0.236,-0.028 l -1.943,-0.47 c -0.536,-0.13 -0.866,-0.67 -0.736,-1.207 0.13,-0.536 0.671,-0.869 1.207,-0.736 l 1.943,0.47 c 0.536,0.13 0.866,0.67 0.736,1.207 -0.111,0.456 -0.52,0.764 -0.971,0.764 z"
   id="path50"
   inkscape:connector-curvature="0" />
			</g>
		</g>
	</g>
	<g
   id="g60">
		<path
   style="fill:#f7a1c8"
   d="m 22.766,48.468 c 0,-0.158 0.013,-0.317 0.026,-0.475 C 23.03,45.671 24.612,44 27,44 c 0.881,0 2.299,0.57 3,1 1.344,0.824 2.656,0.824 4,0 0.701,-0.43 2.119,-1 3,-1 2.388,0 3.97,1.671 4.208,3.993 0.013,0.158 0.026,0.317 0.026,0.475 0,0.158 -0.013,0.317 -0.026,0.475 -0.237,4.881 -4.261,8.1 -9.208,8.1 -4.947,0 -8.97,-3.219 -9.208,-8.1 -0.013,-0.158 -0.026,-0.317 -0.026,-0.475 z"
   id="path58"
   inkscape:connector-curvature="0" />
	</g>
	<g
   id="g64">
		<path
   style="fill:#8d6c9f"
   d="m 32,58 c -6.438,0 -10,-5.321 -10,-9 0,-3.532 2.056,-6 5,-6 1.303,0 2.233,0.62 3.055,1.168 C 30.725,44.614 31.303,45 32,45 32.697,45 33.275,44.614 33.945,44.168 34.767,43.62 35.697,43 37,43 c 2.944,0 5,2.468 5,6 0,3.679 -3.562,9 -10,9 z M 27,45 c -1.822,0 -3,1.57 -3,4 0,2.513 2.674,7 8,7 5.326,0 8,-4.487 8,-7 0,-2.43 -1.178,-4 -3,-4 -0.697,0 -1.275,0.386 -1.945,0.832 C 34.233,46.38 33.303,47 32,47 30.697,47 29.767,46.38 28.945,45.832 28.275,45.386 27.697,45 27,45 Z"
   id="path62"
   inkscape:connector-curvature="0" />
	</g>
	<g
   id="g68">
		<path
   style="fill:#8d6c9f"
   d="m 32,62 c -3.921,0 -7.111,-3.19 -7.111,-7.111 0,-2.257 1.036,-4.33 2.844,-5.688 0.441,-0.33 1.067,-0.242 1.4,0.199 0.331,0.441 0.242,1.068 -0.199,1.4 -1.3,0.977 -2.045,2.467 -2.045,4.089 0,2.818 2.293,5.111 5.111,5.111 2.818,0 5.111,-2.293 5.111,-5.111 0,-1.622 -0.745,-3.112 -2.045,-4.089 -0.441,-0.332 -0.53,-0.959 -0.199,-1.4 0.333,-0.442 0.96,-0.53 1.4,-0.199 1.808,1.358 2.844,3.432 2.844,5.688 C 39.111,58.81 35.921,62 32,62 Z"
   id="path66"
   inkscape:connector-curvature="0" />
	</g>
	<g
   id="g72">
		<path
   style="fill:#8d6c9f"
   d="m 32,10.872 c -0.553,0 -1,-0.447 -1,-1 C 31,5.395 34.468,1 38,1 c 0.553,0 1,0.447 1,1 0,0.553 -0.447,1 -1,1 -2.43,0 -5,3.532 -5,6.872 0,0.553 -0.447,1 -1,1 z"
   id="path70"
   inkscape:connector-curvature="0" />
	</g>
	<g
   id="g76">
		<path
   style="fill:#8d6c9f"
   d="m 32,10.872 c -0.553,0 -1,-0.447 -1,-1 C 31,7.6 30.307,5.424 28.995,3.58 28.675,3.13 28.78,2.505 29.229,2.185 29.68,1.866 30.305,1.971 30.624,2.419 32.179,4.604 33,7.182 33,9.872 c 0,0.553 -0.447,1 -1,1 z"
   id="path74"
   inkscape:connector-curvature="0" />
	</g>
	<circle
   r="4.2666106"
   cy="37"
   cx="21.141294"
   id="circle906"
   style="opacity:1;fill:#8d6c9f;fill-opacity:1;stroke:#8d6c9f;stroke-width:1.00157475;stroke-linecap:round;stroke-linejoin:round;stroke-miterlimit:4;stroke-dasharray:none;stroke-opacity:1;paint-order:normal" />
	
<circle
   style="opacity:1;fill:#8d6c9f;fill-opacity:1;stroke:#8d6c9f;stroke-width:1.00157475;stroke-linecap:round;stroke-linejoin:round;stroke-miterlimit:4;stroke-dasharray:none;stroke-opacity:1;paint-order:normal"
   id="path904"
   cx="43.576954"
   cy="37"
   r="4.2666106" /></g>
<g
   id="Layer_2_1_"
   style="display:none;">
</g>
</svg>