<svg
   xmlns:dc="http://purl.org/dc/elements/1.1/"
   xmlns:cc="http://creativecommons.org/ns#"
   xmlns:rdf="http://www.w3.org/1999/02/22-rdf-syntax-ns#"
   xmlns:svg="http://www.w3.org/2000/svg"
   xmlns="http://www.w3.org/2000/svg"
   xmlns:sodipodi="http://sodipodi.sourceforge.net/DTD/sodipodi-0.dtd"
   xmlns:inkscape="http://www.inkscape.org/namespaces/inkscape"
   version="1.1"
   x="0px"
   y="0px"
   viewBox="0 0 30.270779 58"
   xml:space="preserve"
   id="svg6167"
   sodipodi:docname="boy.svg"
   width="30.270779"
   height="58"
   inkscape:version="0.92.3 (2405546, 2018-03-11)"><metadata
   id="metadata6173"><rdf:RDF><cc:Work
       rdf:about=""><dc:format>image/svg+xml</dc:format><dc:type
         rdf:resource="http://purl.org/dc/dcmitype/StillImage" /><dc:title></dc:title></cc:Work></rdf:RDF></metadata><defs
   id="defs6171" /><sodipodi:namedview
   pagecolor="#ffffff"
   bordercolor="#666666"
   borderopacity="1"
   objecttolerance="10"
   gridtolerance="10"
   guidetolerance="10"
   inkscape:pageopacity="0"
   inkscape:pageshadow="2"
   inkscape:window-width="1920"
   inkscape:window-height="1025"
   id="namedview6169"
   showgrid="false"
   inkscape:zoom="10.429825"
   inkscape:cx="42.216506"
   inkscape:cy="26.288698"
   inkscape:window-x="1920"
   inkscape:window-y="27"
   inkscape:window-maximized="1"
   inkscape:current-layer="g6107" />
<g
   id="Layer_1"
   transform="translate(-2.8414168,-4)">
	
	
	
	
	
	<g
   id="g6047">
		<path
   style="clip-rule:evenodd;fill:#72caaf;fill-rule:evenodd"
   d="M 32.075,40.149 27.848,25.865 C 27.345,24.166 25.784,23 24.012,23 H 11.988 c -1.772,0 -3.333,1.166 -3.836,2.865 L 3.925,40.149 c -0.314,1.062 0.3,2.176 1.365,2.477 v 0 c 1.056,0.299 2.155,-0.315 2.454,-1.372 L 11,29.742 V 46 H 25 V 29.742 l 3.256,11.512 c 0.299,1.056 1.397,1.671 2.454,1.372 v 0 c 1.066,-0.302 1.68,-1.415 1.365,-2.477 z"
   id="path6045"
   inkscape:connector-curvature="0" />
	</g>
	<g
   id="g6051">
		<path
   style="clip-rule:evenodd;fill:#faefde;fill-rule:evenodd"
   d="m 6.632,31.001 -2.707,9.148 c -0.314,1.062 0.3,2.176 1.365,2.477 1.056,0.299 2.155,-0.315 2.454,-1.372 l 2.898,-10.245 c -1.338,0.012 -2.681,0.03 -4.01,-0.008 z"
   id="path6049"
   inkscape:connector-curvature="0" />
	</g>
	<g
   id="g6055">
		<rect
   x="11"
   y="37"
   style="clip-rule:evenodd;fill:#85cbf8;fill-rule:evenodd"
   width="14"
   height="9"
   id="rect6053" />
	</g>
	<g
   id="g6059">
		<path
   style="clip-rule:evenodd;fill:#faefde;fill-rule:evenodd"
   d="m 32.075,40.149 -2.738,-9.253 c -0.506,-0.052 -1.012,-0.095 -1.519,-0.052 -0.798,0.069 -1.586,0.289 -2.369,0.485 l 2.807,9.925 c 0.299,1.056 1.397,1.671 2.454,1.372 1.066,-0.302 1.68,-1.416 1.365,-2.477 z"
   id="path6057"
   inkscape:connector-curvature="0" />
	</g>
	<g
   id="g6063">
		<path
   style="clip-rule:evenodd;fill:#faefde;fill-rule:evenodd"
   d="m 16,46 h -5 v 12.5 c 0,1.381 1.119,2.5 2.5,2.5 v 0 c 1.381,0 2.5,-1.119 2.5,-2.5 z"
   id="path6061"
   inkscape:connector-curvature="0" />
	</g>
	<g
   id="g6067">
		<path
   style="clip-rule:evenodd;fill:#faefde;fill-rule:evenodd"
   d="m 25,46 h -5 v 12.5 c 0,1.381 1.119,2.5 2.5,2.5 v 0 c 1.381,0 2.5,-1.119 2.5,-2.5 z"
   id="path6065"
   inkscape:connector-curvature="0" />
	</g>
	
	
	<g
   id="g6079">
		<circle
   style="clip-rule:evenodd;fill:#faefde;fill-rule:evenodd"
   cx="18"
   cy="12"
   r="7"
   id="circle6077" />
	</g>
	
	
	
	<g
   id="g6095">
		<path
   style="fill:#8d6c9f"
   d="m 18,20 c -4.411,0 -8,-3.589 -8,-8 0,-4.411 3.589,-8 8,-8 4.411,0 8,3.589 8,8 0,4.411 -3.589,8 -8,8 z M 18,6 c -3.309,0 -6,2.691 -6,6 0,3.309 2.691,6 6,6 3.309,0 6,-2.691 6,-6 0,-3.309 -2.691,-6 -6,-6 z"
   id="path6093"
   inkscape:connector-curvature="0" />
	</g>
	
	
	<g
   id="g6107">
		<path
   style="fill:#8d6c9f"
   d="M 32.704,38.748 28.807,25.582 C 28.183,23.473 26.211,22 24.012,22 H 11.988 C 9.789,22 7.817,23.473 7.194,25.581 L 2.966,39.864 c -0.229,0.772 -0.14,1.585 0.248,2.29 0.388,0.705 1.029,1.215 1.804,1.434 0.768,0.22 1.575,0.122 2.271,-0.267 0.696,-0.39 1.2,-1.027 1.417,-1.795 L 10,36.951 V 46 c 0,0.553 0.448,1 1,1 h 14 c 0.552,0 1,-0.447 1,-1 v -9.049 l 1.294,4.575 c 0.217,0.768 0.721,1.405 1.417,1.795 0.697,0.388 1.503,0.482 2.271,0.267 0.594,-0.168 1.106,-0.509 1.489,-0.975 0.97082,-1.004182 0.660304,-2.400545 0.233,-3.865 z m -1.67,2.441 c -0.128,0.233 -0.34,0.401 -0.597,0.475 -0.253,0.072 -0.52,0.041 -0.75,-0.089 -0.23,-0.129 -0.396,-0.34 -0.468,-0.594 L 25.962,29.47 C 25.826,28.991 25.355,28.68 24.862,28.752 24.368,28.82 24,29.243 24,29.742 V 45 H 12 V 29.742 c 0,-0.499 -0.368,-0.922 -0.863,-0.99 -0.494,-0.075 -0.964,0.238 -1.1,0.718 L 6.781,40.981 c -0.072,0.254 -0.238,0.465 -0.468,0.594 -0.23,0.13 -0.498,0.161 -0.75,0.089 C 5.307,41.591 5.095,41.423 4.966,41.189 4.837,40.955 4.808,40.687 4.884,40.432 L 9.112,26.148 C 9.485,24.884 10.668,24 11.988,24 h 12.024 c 1.319,0 2.502,0.884 2.876,2.149 l 4.228,14.283 c 0.076,0.256 0.047,0.524 -0.082,0.757 z"
   id="path6105"
   inkscape:connector-curvature="0"
   sodipodi:nodetypes="ccssccsccccssssccccccccccccsccscccccsccssccc" />
	</g>
	<g
   id="g6111">
		<path
   style="fill:#8d6c9f"
   d="M 13.5,62 C 11.57,62 10,60.43 10,58.5 V 46 c 0,-0.553 0.448,-1 1,-1 h 5 c 0.552,0 1,0.447 1,1 V 58.5 C 17,60.43 15.43,62 13.5,62 Z M 12,47 v 11.5 c 0,0.827 0.673,1.5 1.5,1.5 0.827,0 1.5,-0.673 1.5,-1.5 V 47 Z"
   id="path6109"
   inkscape:connector-curvature="0" />
	</g>
	<g
   id="g6115">
		<path
   style="fill:#8d6c9f"
   d="M 22.5,62 C 20.57,62 19,60.43 19,58.5 V 46 c 0,-0.553 0.448,-1 1,-1 h 5 c 0.552,0 1,0.447 1,1 V 58.5 C 26,60.43 24.43,62 22.5,62 Z M 21,47 v 11.5 c 0,0.827 0.673,1.5 1.5,1.5 0.827,0 1.5,-0.673 1.5,-1.5 V 47 Z"
   id="path6113"
   inkscape:connector-curvature="0" />
	</g>
	<g
   id="g6119">
		<path
   style="fill:#8d6c9f"
   d="M 21,38 H 11 c -0.552,0 -1,-0.447 -1,-1 0,-0.553 0.448,-1 1,-1 h 10 c 0.552,0 1,0.447 1,1 0,0.553 -0.448,1 -1,1 z"
   id="path6117"
   inkscape:connector-curvature="0" />
	</g>
	
	
	
	
	
	
	
	
	<g
   id="g6155">
		<rect
   x="7"
   y="30"
   style="fill:#8d6c9f"
   width="4"
   height="2"
   id="rect6153" />
	</g>
	<g
   id="g6159">
		<rect
   x="25"
   y="30"
   style="fill:#8d6c9f"
   width="4"
   height="2"
   id="rect6157" />
	</g>
	
</g>
<g
   id="Layer_2_1_"
   style="display:none"
   transform="translate(-2.8414168,-4)">
</g>
</svg>