<svg xmlns="http://www.w3.org/2000/svg" xmlns:xlink="http://www.w3.org/1999/xlink" version="1.1" x="0px" y="0px" viewBox="0 0 64 64" style="enable-background:new 0 0 64 64;" xml:space="preserve">
<g id="Layer_1">
	<g>
		<path style="fill-rule:evenodd;clip-rule:evenodd;fill:#F283A5;" d="M60.075,40.149l-4.227-14.284    C55.345,24.166,53.784,23,52.012,23H39.988c-1.772,0-3.333,1.166-3.836,2.865l-4.227,14.284c-0.314,1.062,0.3,2.176,1.365,2.477h0    c1.056,0.299,2.155-0.315,2.454-1.372L39,29.742L35,49h23l-5-19.258l3.256,11.512c0.299,1.056,1.397,1.671,2.454,1.372h0    C59.776,42.324,60.39,41.211,60.075,40.149z"></path>
	</g>
	<g>
		<path style="fill-rule:evenodd;clip-rule:evenodd;fill:#FAEFDE;" d="M35.744,41.254l2.293-8.108    c-1.35,0.047-2.71,0.201-4.055,0.05l-2.058,6.953c-0.314,1.062,0.3,2.176,1.365,2.477C34.346,42.925,35.445,42.31,35.744,41.254z"></path>
	</g>
	<g>
		<path style="fill-rule:evenodd;clip-rule:evenodd;fill:#FAEFDE;" d="M60.075,40.149l-2.058-6.953    c-0.022,0.001-0.037,0.012-0.059,0.012H53.98l2.276,8.046c0.299,1.056,1.397,1.671,2.454,1.372    C59.776,42.324,60.39,41.21,60.075,40.149z"></path>
	</g>
	<g>
		<path style="fill-rule:evenodd;clip-rule:evenodd;fill:#FAEFDE;" d="M44,49h-5v9.5c0,1.381,1.119,2.5,2.5,2.5h0    c1.381,0,2.5-1.119,2.5-2.5V49z"></path>
	</g>
	<g>
		<path style="fill-rule:evenodd;clip-rule:evenodd;fill:#FAEFDE;" d="M53,49h-5v9.5c0,1.381,1.119,2.5,2.5,2.5h0    c1.381,0,2.5-1.119,2.5-2.5V49z"></path>
	</g>
	<g>
		<path style="fill-rule:evenodd;clip-rule:evenodd;fill:#72CAAF;" d="M32.075,40.149l-4.227-14.284    C27.345,24.166,25.784,23,24.012,23H11.988c-1.772,0-3.333,1.166-3.836,2.865L3.925,40.149c-0.314,1.062,0.3,2.176,1.365,2.477h0    c1.056,0.299,2.155-0.315,2.454-1.372L11,29.742V46h14V29.742l3.256,11.512c0.299,1.056,1.397,1.671,2.454,1.372h0    C31.776,42.324,32.39,41.211,32.075,40.149z"></path>
	</g>
	<g>
		<path style="fill-rule:evenodd;clip-rule:evenodd;fill:#FAEFDE;" d="M6.632,31.001l-2.707,9.148    c-0.314,1.062,0.3,2.176,1.365,2.477c1.056,0.299,2.155-0.315,2.454-1.372l2.898-10.245C9.304,31.021,7.961,31.039,6.632,31.001z"></path>
	</g>
	<g>
		<rect x="11" y="37" style="fill-rule:evenodd;clip-rule:evenodd;fill:#85CBF8;" width="14" height="9"></rect>
	</g>
	<g>
		<path style="fill-rule:evenodd;clip-rule:evenodd;fill:#FAEFDE;" d="M32.075,40.149l-2.738-9.253    c-0.506-0.052-1.012-0.095-1.519-0.052c-0.798,0.069-1.586,0.289-2.369,0.485l2.807,9.925c0.299,1.056,1.397,1.671,2.454,1.372    C31.776,42.324,32.39,41.21,32.075,40.149z"></path>
	</g>
	<g>
		<path style="fill-rule:evenodd;clip-rule:evenodd;fill:#FAEFDE;" d="M16,46h-5v12.5c0,1.381,1.119,2.5,2.5,2.5h0    c1.381,0,2.5-1.119,2.5-2.5V46z"></path>
	</g>
	<g>
		<path style="fill-rule:evenodd;clip-rule:evenodd;fill:#FAEFDE;" d="M25,46h-5v12.5c0,1.381,1.119,2.5,2.5,2.5h0    c1.381,0,2.5-1.119,2.5-2.5V46z"></path>
	</g>
	<g>
		<circle style="fill-rule:evenodd;clip-rule:evenodd;fill:#FAEFDE;" cx="46" cy="12" r="7"></circle>
	</g>
	<g>
		<path style="fill-rule:evenodd;clip-rule:evenodd;fill:#D3A9B0;" d="M39,11c3,0,13,0,14,0c-0.357-3.531-3.375-6-7-6    C40,5,38.991,11,39,11z"></path>
	</g>
	<g>
		<circle style="fill-rule:evenodd;clip-rule:evenodd;fill:#FAEFDE;" cx="18" cy="12" r="7"></circle>
	</g>
	<g>
		<path style="fill-rule:evenodd;clip-rule:evenodd;fill:#D3A9B0;" d="M39,9.102c-3.391,0.625-6,4.365-6,8.898h6V9.102z"></path>
	</g>
	<g>
		<path style="fill-rule:evenodd;clip-rule:evenodd;fill:#D3A9B0;" d="M53,9.102c3.391,0.625,6,4.365,6,8.898h-6V9.102z"></path>
	</g>
	<g>
		<path style="fill:#8D6C9F;" d="M46,20c-4.411,0-8-3.589-8-8s3.589-8,8-8s8,3.589,8,8S50.411,20,46,20z M46,6c-3.309,0-6,2.691-6,6    s2.691,6,6,6s6-2.691,6-6S49.309,6,46,6z"></path>
	</g>
	<g>
		<path style="fill:#8D6C9F;" d="M18,20c-4.411,0-8-3.589-8-8s3.589-8,8-8s8,3.589,8,8S22.411,20,18,20z M18,6c-3.309,0-6,2.691-6,6    s2.691,6,6,6s6-2.691,6-6S21.309,6,18,6z"></path>
	</g>
	<g>
		<path style="fill:#8D6C9F;" d="M39,19h-6c-0.552,0-1-0.447-1-1c0-4.997,2.868-9.152,6.819-9.881    c0.291-0.051,0.592,0.025,0.821,0.215C39.868,8.524,40,8.806,40,9.103V18C40,18.553,39.552,19,39,19z M34.047,17H38v-6.529    C35.885,11.474,34.333,14.008,34.047,17z"></path>
	</g>
	<g>
		<path style="fill:#8D6C9F;" d="M59,19h-6c-0.552,0-1-0.447-1-1V9.103c0-0.297,0.132-0.578,0.36-0.769s0.529-0.268,0.821-0.215    C57.132,8.848,60,13.003,60,18C60,18.553,59.552,19,59,19z M54,17h3.953c-0.286-2.992-1.838-5.526-3.953-6.529V17z"></path>
	</g>
	<g>
		<path style="fill:#8D6C9F;" d="M32.704,38.748l-3.897-13.166C28.183,23.473,26.211,22,24.012,22H11.988    c-2.199,0-4.171,1.473-4.794,3.581L2.966,39.864c-0.229,0.772-0.14,1.585,0.248,2.29s1.029,1.215,1.804,1.434    c0.768,0.22,1.575,0.122,2.271-0.267c0.696-0.39,1.2-1.027,1.417-1.795L10,36.951V46c0,0.553,0.448,1,1,1h14c0.552,0,1-0.447,1-1    v-9.049l1.294,4.575c0.217,0.768,0.721,1.405,1.417,1.795c0.697,0.388,1.503,0.482,2.271,0.267    c0.594-0.168,1.106-0.509,1.489-0.975C31.716,41.465,31.789,39.781,32.704,38.748z M31.034,41.189    c-0.128,0.233-0.34,0.401-0.597,0.475c-0.253,0.072-0.52,0.041-0.75-0.089c-0.23-0.129-0.396-0.34-0.468-0.594L25.962,29.47    c-0.136-0.479-0.607-0.79-1.1-0.718C24.368,28.82,24,29.243,24,29.742V45H12V29.742c0-0.499-0.368-0.922-0.863-0.99    c-0.494-0.075-0.964,0.238-1.1,0.718L6.781,40.981c-0.072,0.254-0.238,0.465-0.468,0.594c-0.23,0.13-0.498,0.161-0.75,0.089    c-0.256-0.073-0.468-0.241-0.597-0.475s-0.158-0.502-0.082-0.757l4.228-14.284C9.485,24.884,10.668,24,11.988,24h12.024    c1.319,0,2.502,0.884,2.876,2.149l4.228,14.283C31.192,40.688,31.163,40.956,31.034,41.189z"></path>
	</g>
	<g>
		<path style="fill:#8D6C9F;" d="M13.5,62c-1.93,0-3.5-1.57-3.5-3.5V46c0-0.553,0.448-1,1-1h5c0.552,0,1,0.447,1,1v12.5    C17,60.43,15.43,62,13.5,62z M12,47v11.5c0,0.827,0.673,1.5,1.5,1.5s1.5-0.673,1.5-1.5V47H12z"></path>
	</g>
	<g>
		<path style="fill:#8D6C9F;" d="M22.5,62c-1.93,0-3.5-1.57-3.5-3.5V46c0-0.553,0.448-1,1-1h5c0.552,0,1,0.447,1,1v12.5    C26,60.43,24.43,62,22.5,62z M21,47v11.5c0,0.827,0.673,1.5,1.5,1.5s1.5-0.673,1.5-1.5V47H21z"></path>
	</g>
	<g>
		<path style="fill:#8D6C9F;" d="M21,38H11c-0.552,0-1-0.447-1-1s0.448-1,1-1h10c0.552,0,1,0.447,1,1S21.552,38,21,38z"></path>
	</g>
	<g>
		<path style="fill:#8D6C9F;" d="M58,50H35c-0.301,0-0.586-0.136-0.776-0.369s-0.265-0.54-0.203-0.834l1.121-5.399    c-0.661,0.325-1.408,0.396-2.125,0.19c-0.775-0.219-1.416-0.729-1.804-1.434s-0.477-1.518-0.248-2.29l4.228-14.283    C35.817,23.473,37.789,22,39.988,22h12.024c2.199,0,4.171,1.473,4.794,3.582l4.228,14.282l0,0c0.229,0.772,0.14,1.585-0.248,2.29    s-1.029,1.215-1.804,1.434c-0.442,0.126-0.897,0.147-1.336,0.068l1.322,5.093c0.078,0.299,0.013,0.618-0.177,0.863    C58.602,49.856,58.31,50,58,50z M36.229,48h20.478l-4.675-18.007c-0.138-0.53,0.177-1.072,0.706-1.216    c0.529-0.148,1.075,0.166,1.224,0.692l3.256,11.512c0.072,0.254,0.238,0.465,0.468,0.594c0.23,0.13,0.498,0.161,0.75,0.089    c0.256-0.073,0.468-0.241,0.597-0.475s0.158-0.502,0.082-0.757l-4.228-14.283C54.515,24.884,53.332,24,52.012,24H39.988    c-1.319,0-2.502,0.884-2.876,2.148l-4.228,14.284c-0.076,0.255-0.046,0.523,0.082,0.757s0.34,0.401,0.597,0.475    c0.252,0.072,0.52,0.041,0.75-0.089c0.23-0.129,0.396-0.34,0.468-0.594l3.256-11.512c0.147-0.517,0.678-0.828,1.2-0.699    c0.523,0.129,0.851,0.647,0.741,1.175L36.229,48z"></path>
	</g>
	<g>
		<path style="fill:#8D6C9F;" d="M41.5,62c-1.93,0-3.5-1.57-3.5-3.5V49c0-0.553,0.448-1,1-1h5c0.552,0,1,0.447,1,1v9.5    C45,60.43,43.43,62,41.5,62z M40,50v8.5c0,0.827,0.673,1.5,1.5,1.5s1.5-0.673,1.5-1.5V50H40z"></path>
	</g>
	<g>
		<path style="fill:#8D6C9F;" d="M50.5,62c-1.93,0-3.5-1.57-3.5-3.5V49c0-0.553,0.448-1,1-1h5c0.552,0,1,0.447,1,1v9.5    C54,60.43,52.43,62,50.5,62z M49,50v8.5c0,0.827,0.673,1.5,1.5,1.5s1.5-0.673,1.5-1.5V50H49z"></path>
	</g>
	<g>
		<path style="fill:#8D6C9F;" d="M41,46c-0.552,0-1-0.447-1-1v-2c0-0.553,0.448-1,1-1s1,0.447,1,1v2C42,45.553,41.552,46,41,46z"></path>
	</g>
	<g>
		<path style="fill:#8D6C9F;" d="M46,46c-0.552,0-1-0.447-1-1v-2c0-0.553,0.448-1,1-1s1,0.447,1,1v2C47,45.553,46.552,46,46,46z"></path>
	</g>
	<g>
		<path style="fill:#8D6C9F;" d="M51,46c-0.552,0-1-0.447-1-1v-2c0-0.553,0.448-1,1-1s1,0.447,1,1v2C52,45.553,51.552,46,51,46z"></path>
	</g>
	<g>
		<path style="fill:#8D6C9F;" d="M38,34h-3c-0.552,0-1-0.447-1-1s0.448-1,1-1h3c0.552,0,1,0.447,1,1S38.552,34,38,34z"></path>
	</g>
	<g>
		<path style="fill:#8D6C9F;" d="M57,34h-3c-0.552,0-1-0.447-1-1s0.448-1,1-1h3c0.552,0,1,0.447,1,1S57.552,34,57,34z"></path>
	</g>
	<g>
		<rect x="7" y="30" style="fill:#8D6C9F;" width="4" height="2"></rect>
	</g>
	<g>
		<rect x="25" y="30" style="fill:#8D6C9F;" width="4" height="2"></rect>
	</g>
	<g>
		<path style="fill:#8D6C9F;" d="M52,12H39c-0.552,0-1-0.447-1-1s0.448-1,1-1h13c0.552,0,1,0.447,1,1S52.552,12,52,12z"></path>
	</g>
</g>
<g id="Layer_2_1_" style="display:none;">
</g>
</svg>