<?xml version="1.0" encoding="UTF-8" standalone="no"?>
<svg
   xmlns:dc="http://purl.org/dc/elements/1.1/"
   xmlns:cc="http://creativecommons.org/ns#"
   xmlns:rdf="http://www.w3.org/1999/02/22-rdf-syntax-ns#"
   xmlns:svg="http://www.w3.org/2000/svg"
   xmlns="http://www.w3.org/2000/svg"
   xmlns:sodipodi="http://sodipodi.sourceforge.net/DTD/sodipodi-0.dtd"
   xmlns:inkscape="http://www.inkscape.org/namespaces/inkscape"
   version="1.1"
   x="0px"
   y="0px"
   viewBox="0 0 30.318167 58"
   xml:space="preserve"
   id="svg6167"
   sodipodi:docname="girl.svg"
   width="30.318167"
   height="58"
   inkscape:version="0.92.3 (2405546, 2018-03-11)"><metadata
   id="metadata6173"><rdf:RDF><cc:Work
       rdf:about=""><dc:format>image/svg+xml</dc:format><dc:type
         rdf:resource="http://purl.org/dc/dcmitype/StillImage" /><dc:title></dc:title></cc:Work></rdf:RDF></metadata><defs
   id="defs6171" /><sodipodi:namedview
   pagecolor="#ffffff"
   bordercolor="#666666"
   borderopacity="1"
   objecttolerance="10"
   gridtolerance="10"
   guidetolerance="10"
   inkscape:pageopacity="0"
   inkscape:pageshadow="2"
   inkscape:window-width="1920"
   inkscape:window-height="1025"
   id="namedview6169"
   showgrid="false"
   inkscape:zoom="10.429825"
   inkscape:cx="41.57943"
   inkscape:cy="25.566244"
   inkscape:window-x="1920"
   inkscape:window-y="27"
   inkscape:window-maximized="1"
   inkscape:current-layer="g6107" />
<g
   id="Layer_1"
   transform="translate(17.878642,-41.6291)">
	
	
	
	
	
	
	
	
	
	
	
	
	
	
	
	
	
	
	
	
	<g
   id="g6107">
		
	<g
   id="g6027"
   transform="translate(-48.719059,37.6291)"><path
     style="clip-rule:evenodd;fill:#f283a5;fill-rule:evenodd"
     d="M 60.075,40.149 55.848,25.865 C 55.345,24.166 53.784,23 52.012,23 H 39.988 c -1.772,0 -3.333,1.166 -3.836,2.865 l -4.227,14.284 c -0.314,1.062 0.3,2.176 1.365,2.477 v 0 c 1.056,0.299 2.155,-0.315 2.454,-1.372 L 39,29.742 35,49 h 23 l -5,-19.258 3.256,11.512 c 0.299,1.056 1.397,1.671 2.454,1.372 v 0 c 1.066,-0.302 1.68,-1.415 1.365,-2.477 z"
     id="path6025"
     inkscape:connector-curvature="0" /></g><g
   id="g6031"
   transform="translate(-48.719059,37.6291)"><path
     style="clip-rule:evenodd;fill:#faefde;fill-rule:evenodd"
     d="m 35.744,41.254 2.293,-8.108 c -1.35,0.047 -2.71,0.201 -4.055,0.05 l -2.058,6.953 c -0.314,1.062 0.3,2.176 1.365,2.477 1.057,0.299 2.156,-0.316 2.455,-1.372 z"
     id="path6029"
     inkscape:connector-curvature="0" /></g><g
   id="g6035"
   transform="translate(-48.719059,37.6291)"><path
     style="clip-rule:evenodd;fill:#faefde;fill-rule:evenodd"
     d="m 60.075,40.149 -2.058,-6.953 c -0.022,0.001 -0.037,0.012 -0.059,0.012 H 53.98 l 2.276,8.046 c 0.299,1.056 1.397,1.671 2.454,1.372 1.066,-0.302 1.68,-1.416 1.365,-2.477 z"
     id="path6033"
     inkscape:connector-curvature="0" /></g><g
   id="g6039"
   transform="translate(-48.719059,37.6291)"><path
     style="clip-rule:evenodd;fill:#faefde;fill-rule:evenodd"
     d="m 44,49 h -5 v 9.5 c 0,1.381 1.119,2.5 2.5,2.5 v 0 c 1.381,0 2.5,-1.119 2.5,-2.5 z"
     id="path6037"
     inkscape:connector-curvature="0" /></g><g
   id="g6043"
   transform="translate(-48.719059,37.6291)"><path
     style="clip-rule:evenodd;fill:#faefde;fill-rule:evenodd"
     d="m 53,49 h -5 v 9.5 c 0,1.381 1.119,2.5 2.5,2.5 v 0 c 1.381,0 2.5,-1.119 2.5,-2.5 z"
     id="path6041"
     inkscape:connector-curvature="0" /></g><g
   id="g6071"
   transform="translate(-48.719059,37.6291)"><circle
     style="clip-rule:evenodd;fill:#faefde;fill-rule:evenodd"
     cx="46"
     cy="12"
     r="7"
     id="circle6069" /></g><g
   id="g6075"
   transform="translate(-48.719059,37.6291)"><path
     style="clip-rule:evenodd;fill:#d3a9b0;fill-rule:evenodd"
     d="m 39,11 c 3,0 13,0 14,0 -0.357,-3.531 -3.375,-6 -7,-6 -6,0 -7.009,6 -7,6 z"
     id="path6073"
     inkscape:connector-curvature="0" /></g><g
   id="g6083"
   transform="translate(-48.719059,37.6291)"><path
     style="clip-rule:evenodd;fill:#d3a9b0;fill-rule:evenodd"
     d="M 39,9.102 C 35.609,9.727 33,13.467 33,18 h 6 z"
     id="path6081"
     inkscape:connector-curvature="0" /></g><g
   id="g6087"
   transform="translate(-48.719059,37.6291)"><path
     style="clip-rule:evenodd;fill:#d3a9b0;fill-rule:evenodd"
     d="m 53,9.102 c 3.391,0.625 6,4.365 6,8.898 h -6 z"
     id="path6085"
     inkscape:connector-curvature="0" /></g><g
   id="g6091"
   transform="translate(-48.719059,37.6291)"><path
     style="fill:#8d6c9f"
     d="m 46,20 c -4.411,0 -8,-3.589 -8,-8 0,-4.411 3.589,-8 8,-8 4.411,0 8,3.589 8,8 0,4.411 -3.589,8 -8,8 z M 46,6 c -3.309,0 -6,2.691 -6,6 0,3.309 2.691,6 6,6 3.309,0 6,-2.691 6,-6 0,-3.309 -2.691,-6 -6,-6 z"
     id="path6089"
     inkscape:connector-curvature="0" /></g><g
   id="g6099"
   transform="translate(-48.719059,37.6291)"><path
     style="fill:#8d6c9f"
     d="M 39,19 H 33 C 32.448,19 32,18.553 32,18 32,13.003 34.868,8.848 38.819,8.119 39.11,8.068 39.411,8.144 39.64,8.334 39.868,8.524 40,8.806 40,9.103 V 18 c 0,0.553 -0.448,1 -1,1 z M 34.047,17 H 38 V 10.471 C 35.885,11.474 34.333,14.008 34.047,17 Z"
     id="path6097"
     inkscape:connector-curvature="0" /></g><g
   id="g6103"
   transform="translate(-48.719059,37.6291)"><path
     style="fill:#8d6c9f"
     d="m 59,19 h -6 c -0.552,0 -1,-0.447 -1,-1 V 9.103 C 52,8.806 52.132,8.525 52.36,8.334 52.588,8.143 52.889,8.066 53.181,8.119 57.132,8.848 60,13.003 60,18 c 0,0.553 -0.448,1 -1,1 z m -5,-2 h 3.953 C 57.667,14.008 56.115,11.474 54,10.471 Z"
     id="path6101"
     inkscape:connector-curvature="0" /></g><g
   id="g6123"
   transform="translate(-48.719059,37.6291)"><path
     style="fill:#8d6c9f"
     d="M 58,50 H 35 c -0.301,0 -0.586,-0.136 -0.776,-0.369 -0.19,-0.233 -0.265,-0.54 -0.203,-0.834 l 1.121,-5.399 c -0.661,0.325 -1.408,0.396 -2.125,0.19 -0.775,-0.219 -1.416,-0.729 -1.804,-1.434 -0.388,-0.705 -0.477,-1.518 -0.248,-2.29 L 35.193,25.581 C 35.817,23.473 37.789,22 39.988,22 h 12.024 c 2.199,0 4.171,1.473 4.794,3.582 l 4.228,14.282 v 0 c 0.229,0.772 0.14,1.585 -0.248,2.29 -0.388,0.705 -1.029,1.215 -1.804,1.434 -0.442,0.126 -0.897,0.147 -1.336,0.068 l 1.322,5.093 c 0.078,0.299 0.013,0.618 -0.177,0.863 C 58.602,49.856 58.31,50 58,50 Z M 36.229,48 H 56.707 L 52.032,29.993 c -0.138,-0.53 0.177,-1.072 0.706,-1.216 0.529,-0.148 1.075,0.166 1.224,0.692 l 3.256,11.512 c 0.072,0.254 0.238,0.465 0.468,0.594 0.23,0.13 0.498,0.161 0.75,0.089 0.256,-0.073 0.468,-0.241 0.597,-0.475 0.129,-0.234 0.158,-0.502 0.082,-0.757 L 54.887,26.149 C 54.515,24.884 53.332,24 52.012,24 H 39.988 c -1.319,0 -2.502,0.884 -2.876,2.148 l -4.228,14.284 c -0.076,0.255 -0.046,0.523 0.082,0.757 0.128,0.234 0.34,0.401 0.597,0.475 0.252,0.072 0.52,0.041 0.75,-0.089 0.23,-0.129 0.396,-0.34 0.468,-0.594 l 3.256,-11.512 c 0.147,-0.517 0.678,-0.828 1.2,-0.699 0.523,0.129 0.851,0.647 0.741,1.175 z"
     id="path6121"
     inkscape:connector-curvature="0" /></g><g
   id="g6127"
   transform="translate(-48.719059,37.6291)"><path
     style="fill:#8d6c9f"
     d="M 41.5,62 C 39.57,62 38,60.43 38,58.5 V 49 c 0,-0.553 0.448,-1 1,-1 h 5 c 0.552,0 1,0.447 1,1 v 9.5 C 45,60.43 43.43,62 41.5,62 Z M 40,50 v 8.5 c 0,0.827 0.673,1.5 1.5,1.5 0.827,0 1.5,-0.673 1.5,-1.5 V 50 Z"
     id="path6125"
     inkscape:connector-curvature="0" /></g><g
   id="g6131"
   transform="translate(-48.719059,37.6291)"><path
     style="fill:#8d6c9f"
     d="M 50.5,62 C 48.57,62 47,60.43 47,58.5 V 49 c 0,-0.553 0.448,-1 1,-1 h 5 c 0.552,0 1,0.447 1,1 v 9.5 C 54,60.43 52.43,62 50.5,62 Z M 49,50 v 8.5 c 0,0.827 0.673,1.5 1.5,1.5 0.827,0 1.5,-0.673 1.5,-1.5 V 50 Z"
     id="path6129"
     inkscape:connector-curvature="0" /></g><g
   id="g6135"
   transform="translate(-48.719059,37.6291)"><path
     style="fill:#8d6c9f"
     d="m 41,46 c -0.552,0 -1,-0.447 -1,-1 v -2 c 0,-0.553 0.448,-1 1,-1 0.552,0 1,0.447 1,1 v 2 c 0,0.553 -0.448,1 -1,1 z"
     id="path6133"
     inkscape:connector-curvature="0" /></g><g
   id="g6139"
   transform="translate(-48.719059,37.6291)"><path
     style="fill:#8d6c9f"
     d="m 46,46 c -0.552,0 -1,-0.447 -1,-1 v -2 c 0,-0.553 0.448,-1 1,-1 0.552,0 1,0.447 1,1 v 2 c 0,0.553 -0.448,1 -1,1 z"
     id="path6137"
     inkscape:connector-curvature="0" /></g><g
   id="g6143"
   transform="translate(-48.719059,37.6291)"><path
     style="fill:#8d6c9f"
     d="m 51,46 c -0.552,0 -1,-0.447 -1,-1 v -2 c 0,-0.553 0.448,-1 1,-1 0.552,0 1,0.447 1,1 v 2 c 0,0.553 -0.448,1 -1,1 z"
     id="path6141"
     inkscape:connector-curvature="0" /></g><g
   id="g6147"
   transform="translate(-48.719059,37.6291)"><path
     style="fill:#8d6c9f"
     d="m 38,34 h -3 c -0.552,0 -1,-0.447 -1,-1 0,-0.553 0.448,-1 1,-1 h 3 c 0.552,0 1,0.447 1,1 0,0.553 -0.448,1 -1,1 z"
     id="path6145"
     inkscape:connector-curvature="0" /></g><g
   id="g6151"
   transform="translate(-48.719059,37.6291)"><path
     style="fill:#8d6c9f"
     d="m 57,34 h -3 c -0.552,0 -1,-0.447 -1,-1 0,-0.553 0.448,-1 1,-1 h 3 c 0.552,0 1,0.447 1,1 0,0.553 -0.448,1 -1,1 z"
     id="path6149"
     inkscape:connector-curvature="0" /></g><g
   id="g6163"
   transform="translate(-48.719059,37.6291)"><path
     style="fill:#8d6c9f"
     d="M 52,12 H 39 c -0.552,0 -1,-0.447 -1,-1 0,-0.553 0.448,-1 1,-1 h 13 c 0.552,0 1,0.447 1,1 0,0.553 -0.448,1 -1,1 z"
     id="path6161"
     inkscape:connector-curvature="0" /></g></g>
	
	
	
	
	
	
	
	
	
	
	
	
	
	
</g>
<g
   id="Layer_2_1_"
   style="display:none"
   transform="translate(17.878642,-41.6291)">
</g>
</svg>