<?xml version="1.0" encoding="UTF-8" standalone="no"?>
<svg
   xmlns:dc="http://purl.org/dc/elements/1.1/"
   xmlns:cc="http://creativecommons.org/ns#"
   xmlns:rdf="http://www.w3.org/1999/02/22-rdf-syntax-ns#"
   xmlns:svg="http://www.w3.org/2000/svg"
   xmlns="http://www.w3.org/2000/svg"
   xmlns:sodipodi="http://sodipodi.sourceforge.net/DTD/sodipodi-0.dtd"
   xmlns:inkscape="http://www.inkscape.org/namespaces/inkscape"
   viewBox="0 0 64 64"
   version="1.1"
   id="svg7073"
   sodipodi:docname="man.svg"
   inkscape:version="0.92.3 (2405546, 2018-03-11)">
  <metadata
     id="metadata7079">
    <rdf:RDF>
      <cc:Work
         rdf:about="">
        <dc:format>image/svg+xml</dc:format>
        <dc:type
           rdf:resource="http://purl.org/dc/dcmitype/StillImage" />
      </cc:Work>
    </rdf:RDF>
  </metadata>
  <defs
     id="defs7077" />
  <sodipodi:namedview
     pagecolor="#ffffff"
     bordercolor="#666666"
     borderopacity="1"
     objecttolerance="10"
     gridtolerance="10"
     guidetolerance="10"
     inkscape:pageopacity="0"
     inkscape:pageshadow="2"
     inkscape:window-width="1920"
     inkscape:window-height="1025"
     id="namedview7075"
     showgrid="false"
     inkscape:zoom="41.7193"
     inkscape:cx="32.219439"
     inkscape:cy="56.061367"
     inkscape:window-x="1920"
     inkscape:window-y="27"
     inkscape:window-maximized="1"
     inkscape:current-layer="surface1" />
  <g
     id="surface1">
    <path
       style="fill:#faefde"
       d="m 37,6 c 0,2.761719 -2.238281,5 -5,5 -2.761719,0 -5,-2.238281 -5,-5 0,-2.761719 2.238281,-5 5,-5 2.761719,0 5,2.238281 5,5 z"
       id="path7054"
       inkscape:connector-curvature="0" />
    <path
       style="fill:#72caaf"
       d="m 35.929688,14.121094 c -2.566407,-0.734375 -5.292969,-0.734375 -7.859375,0 -2,0.566406 -3.773438,1.746094 -5.070313,3.367187 -1.296875,1.625 -2,3.644532 -2,5.722657 V 32.5 c 0,1.378906 1.121094,2.5 2.5,2.5 1.378906,0 2.5,-1.121094 2.5,-2.5 V 33 l -0.859375,17.859375 c -0.03906,0.820313 0.261719,1.621094 0.828125,2.214844 C 26.535156,53.664063 27.320313,54 28.140625,54 c 1.597656,0.0039 2.917969,-1.253906 3,-2.851562 L 32,35 32.859375,51.148438 c 0.08203,1.597656 1.402344,2.855468 3,2.851562 0.820313,0 1.605469,-0.335937 2.171875,-0.925781 0.566406,-0.59375 0.867188,-1.394531 0.828125,-2.214844 L 38.101563,35 43,33.941406 42.140625,19.089844 Z"
       id="path7056"
       inkscape:connector-curvature="0" />
    <path
       style="fill:#8d6c9f"
       d="m 31.996094,12.558594 c -1.415528,0 -2.832032,0.197265 -4.207032,0.589844 -2.195312,0.625 -4.144531,1.917969 -5.570312,3.703124 C 20.78125,18.656251 19.996094,20.898437 20,23.210938 V 32.5 c 0,1.175781 0.589844,2.269531 1.570312,2.917969 0.980468,0.648437 2.218751,0.761719 3.300782,0.300781 l -0.472656,9.75 c -0.0863,1.780278 -0.157432,3.489247 -0.257813,5.351562 -0.110571,2.051376 1.328125,3.859376 3.359375,4.1875 2.027344,0.324219 3.972656,-0.941406 4.5,-2.929687 0.527344,1.988281 2.472656,3.253906 4.5,2.929687 2.03125,-0.328124 3.487515,-2.137146 3.359375,-4.1875 -0.121313,-1.941124 -0.166011,-3.457864 -0.257813,-5.35156 l -0.472656,-9.75 c 1.082032,0.460938 2.320313,0.347656 3.300782,-0.300781 C 43.410156,34.769531 44,33.675781 44,32.5 v -9.289062 c -0.0039,-2.308594 -0.789062,-4.546875 -2.230469,-6.351563 -1.421875,-1.789062 -3.371093,-3.085939 -5.570312,-3.710937 -1.373047,-0.392579 -2.787598,-0.589844 -4.203125,-0.589844 z m 0.0078,2.041015 c 1.229981,0 2.460938,0.169922 3.65625,0.509766 1.792969,0.503906 3.386719,1.550781 4.558594,3 C 41.371094,19.558594 42,21.359375 42,23.210938 V 32.5 C 42,33.328125 41.328125,34 40.5,34 39.671875,34 39,33.328125 39,32.5 V 21.628906 c 0,-0.550781 -0.449219,-1 -1,-1 -0.550781,0 -1,0.449219 -1,1 V 33 l 0.859375,17.859375 c 0.05469,1.105469 -0.800781,2.042969 -1.90625,2.09375 -1.101562,0.05469 -2.039062,-0.796875 -2.09375,-1.902344 L 33,34.949219 c 0,-0.550781 -0.449219,-1 -1,-1 -0.550781,0 -1,0.449219 -1,1 l -0.859375,16.152343 c -0.05469,1.101563 -0.992187,1.957032 -2.09375,1.902344 -1.105469,-0.05078 -1.960937,-0.988281 -1.90625,-2.09375 l 0.199219,-4.261718 c 0.02734,-0.132813 0.02734,-0.273438 0,-0.410157 v -0.05859 L 27,33 V 21.671875 c 0,-0.554687 -0.449219,-1 -1,-1 -0.550781,0 -1,0.445313 -1,1 V 32.5 C 25,33.328125 24.328125,34 23.5,34 22.671875,34 22,33.328125 22,32.5 v -9.289062 c 0.0039,-1.855469 0.632812,-3.652344 1.789062,-5.101563 1.171877,-1.449219 2.765626,-2.496094 4.5625,-3 1.19336,-0.339844 2.422364,-0.509766 3.652344,-0.509766 z"
       id="path7058"
       inkscape:connector-curvature="0"
       sodipodi:nodetypes="scccsscsscccssccscccscccssssssscccccsccccccccssssssccccc" />
    <path
       style="fill:#8d6c9f"
       d="m 32,12 c 3.3125,0 6,-2.6875 6,-6 0,-3.3125 -2.6875,-6 -6,-6 -3.3125,0 -6,2.6875 -6,6 0,3.3125 2.6875,6 6,6 z M 32,2 c 2.210938,0 4,1.789063 4,4 0,2.210938 -1.789062,4 -4,4 -2.210937,0 -4,-1.789062 -4,-4 0,-2.210937 1.789063,-4 4,-4 z"
       id="path7060"
       inkscape:connector-curvature="0" />
  </g>
</svg>
