<svg height="442pt" viewBox="-6 0 442 442.9" width="442pt" xmlns="http://www.w3.org/2000/svg"><path d="m159.652344 235.199219c42.398437-.097657 81.097656 16.101562 109.699218 43.699219h.097657c-5.371094 10.699218-8.566407 22.359374-9.398438 34.300781-.726562 11.730469 1.011719 23.484375 5.101563 34.5 4.308594 11.476562 10.910156 21.957031 19.398437 30.800781l20 21.300781-1 1-303 .5c-.300781-95.601562 71-165.902343 159.101563-166.101562zm0 0" fill="#e48e66"/><path d="m255.449219 95.699219c0 52.855469-42.84375 95.699219-95.699219 95.699219-52.851562 0-95.699219-42.84375-95.699219-95.699219 0-52.851563 42.847657-95.699219 95.699219-95.699219 52.855469 0 95.699219 42.847656 95.699219 95.699219zm0 0" fill="#f8ec7d"/><path d="m159.75 235.199219h-.199219c-88 .199219-159.300781 70.5-159.101562 166.101562l159.300781-.300781zm0 0" fill="#d18162"/><path d="m159.75 0c-52.851562 0-95.699219 42.847656-95.699219 95.699219 0 52.855469 42.847657 95.699219 95.699219 95.699219zm0 0" fill="#e2d574"/><path d="m344.75 349.300781c-19.898438 0-36.097656-16.601562-36.097656-37.101562s16.199218-37.097657 36.097656-37.097657c20 0 36.101562 16.597657 36.101562 37.097657s-16.101562 37.101562-36.101562 37.101562zm0 0" fill="#f8ec7d"/><path d="m344.75 231.800781c47.402344 0 81.902344 38.300781 84.800781 81.5.726563 11.730469-1.011719 23.480469-5.101562 34.5-4.308594 11.476563-10.910157 21.957031-19.398438 30.800781l-60.300781 64.296876-40.300781-43-20-21.296876c-8.488281-8.84375-15.089844-19.324218-19.398438-30.800781-4.089843-11.019531-5.824219-22.769531-5.101562-34.5.804687-11.949219 4.003906-23.613281 9.402343-34.300781 13.800782-27.300781 41.199219-47.199219 75.398438-47.199219zm-36.097656 80.5c0 20.5 16.199218 37.097657 36.097656 37.097657 20 0 36.101562-16.597657 36.101562-37.097657s-16.199218-37.101562-36.101562-37.101562c-19.898438 0-36.097656 16.601562-36.097656 37.101562zm0 0" fill="#63316d"/></svg>