<?xml version="1.0" encoding="UTF-8" standalone="no"?>
<svg
   xmlns:dc="http://purl.org/dc/elements/1.1/"
   xmlns:cc="http://creativecommons.org/ns#"
   xmlns:rdf="http://www.w3.org/1999/02/22-rdf-syntax-ns#"
   xmlns:svg="http://www.w3.org/2000/svg"
   xmlns="http://www.w3.org/2000/svg"
   xmlns:sodipodi="http://sodipodi.sourceforge.net/DTD/sodipodi-0.dtd"
   xmlns:inkscape="http://www.inkscape.org/namespaces/inkscape"
   version="1.1"
   viewBox="0 0 252 252"
   id="svg1601"
   sodipodi:docname="girl.svg"
   inkscape:version="0.92.3 (2405546, 2018-03-11)">
  <metadata
     id="metadata1607">
    <rdf:RDF>
      <cc:Work
         rdf:about="">
        <dc:format>image/svg+xml</dc:format>
        <dc:type
           rdf:resource="http://purl.org/dc/dcmitype/StillImage" />
      </cc:Work>
    </rdf:RDF>
  </metadata>
  <defs
     id="defs1605" />
  <sodipodi:namedview
     pagecolor="#ffffff"
     bordercolor="#666666"
     borderopacity="1"
     objecttolerance="10"
     gridtolerance="10"
     guidetolerance="10"
     inkscape:pageopacity="0"
     inkscape:pageshadow="2"
     inkscape:window-width="1920"
     inkscape:window-height="1025"
     id="namedview1603"
     showgrid="false"
     inkscape:zoom="3.7460317"
     inkscape:cx="112.32092"
     inkscape:cy="139.67165"
     inkscape:window-x="1920"
     inkscape:window-y="27"
     inkscape:window-maximized="1"
     inkscape:current-layer="Layer_1" />
  <g
     id="g1599">
    <g
       stroke-miterlimit="10"
       font-weight="none"
       font-size="none"
       text-anchor="none"
       style="font-family:none;mix-blend-mode:normal;fill:none;fill-rule:nonzero;stroke:none;stroke-width:1;stroke-linecap:butt;stroke-linejoin:miter;stroke-miterlimit:10;stroke-dasharray:none;stroke-dashoffset:0"
       id="g1597">
      <path
         d="M 0,252 V 0 h 252 v 252 z"
         id="path1541"
         inkscape:connector-curvature="0"
         style="fill:none" />
      <g
         id="g1572">
        <g
           id="surface1">
          <path
             d="m 149.625,27.5625 c 11.33569,-10.19751 14.99634,-9.48999 17.56494,-7.64429 2.55322,1.86108 16.48828,19.6875 16.48828,19.6875 0,0 -13.6582,8.70556 -18.53394,3.62988 -4.89111,-5.07569 -15.51929,-15.6731 -15.51929,-15.6731 z"
             id="path1543"
             inkscape:connector-curvature="0"
             style="fill:#f9e3ae" />
          <path
             d="M 108.86572,27.5625 C 97.53002,17.36499 93.86938,18.07251 91.31616,19.91821 c -2.5686,1.86108 -16.50366,19.6875 -16.50366,19.6875 0,0 13.6582,8.70556 18.54932,3.62988 4.87573,-5.07569 15.50391,-15.6731 15.50391,-15.6731 z"
             id="path1545"
             inkscape:connector-curvature="0"
             style="fill:#f9e3ae" />
          <path
             d="m 129.9375,231.48194 c -0.0154,4.81421 -3.92212,8.70556 -8.73633,8.70556 -4.02978,0.0308 -7.41357,-2.98388 -7.875,-6.96753 L 106.3125,169.3125 h 23.625 z"
             id="path1547"
             inkscape:connector-curvature="0"
             style="fill:#faefde" />
          <path
             d="m 138.67383,240.1875 c -4.81421,0 -8.72095,-3.89136 -8.73633,-8.70556 V 169.3125 h 23.625 l -7.04443,63.98437 c -0.50757,3.95288 -3.8606,6.906 -7.84424,6.89063 z"
             id="path1549"
             inkscape:connector-curvature="0"
             style="fill:#faefde" />
          <path
             d="M 175.52637,138.71997 167.1438,103.08252 C 163.82153,88.82446 151.11694,78.75 136.47436,78.75 h -13.07373 c -14.6272,0 -27.33179,10.05908 -30.66944,24.30176 l -8.38257,35.62207 c -0.95361,3.96826 1.29199,7.99805 5.15259,9.29004 l 4.99878,1.66113 h 1.73804 l -5.67554,27.5625 h 78.75 l -5.67554,-27.5625 h 1.73804 l 4.99878,-1.66113 c 3.84522,-1.29199 6.07544,-5.29102 5.15259,-9.2439 z"
             id="path1551"
             inkscape:connector-curvature="0"
             style="fill:#ed7899" />
          <path
             d="m 153.5625,43.35864 c 0,13.04297 -10.58203,23.625 -23.625,23.625 -13.04297,0 -23.625,-10.58203 -23.625,-23.625 0,-13.05835 10.58203,-23.625 23.625,-23.625 13.04297,0 23.625,10.56665 23.625,23.625 z"
             id="path1553"
             inkscape:connector-curvature="0"
             style="fill:#faefde" />
          <path
             d="M 170.97363,102.375 C 167.2976,86.27124 152.99341,74.84326 136.47436,74.8125 H 123.40063 C 106.88159,74.84326 92.57739,86.27124 88.90136,102.375 l -8.41333,35.4375 c -1.38428,5.96777 2.03027,12.01245 7.875,13.9043 l 3.30689,1.09204 -4.84497,23.625 c -0.23071,1.16895 0.07691,2.36865 0.83057,3.27612 0.7229,0.86133 1.78418,1.38428 2.90698,1.41504 h 13.10449 l 5.79858,52.60254 c 0.69214,5.98315 5.7832,10.47436 11.8125,10.4436 3.22998,-0.0154 6.32153,-1.27661 8.65942,-3.50684 2.33789,2.2456 5.46021,3.50684 8.70557,3.50684 6.0293,0.0308 11.12036,-4.49121 11.8125,-10.47436 L 156.208,181.125 h 13.10449 c 1.18433,-0.0154 2.29175,-0.53833 3.03003,-1.46118 0.75367,-0.90747 1.06128,-2.10718 0.83057,-3.26074 l -4.84497,-23.625 3.30689,-1.10742 c 5.82935,-1.89184 9.25928,-7.92114 7.875,-13.9043 z M 121.20117,236.25 c -1.99951,0.0154 -3.69141,-1.4458 -3.9375,-3.42993 L 111.58813,181.125 h 14.41186 v 50.35694 c -0.0154,2.64551 -2.1687,4.76806 -4.79883,4.76806 z m 21.3794,-3.46069 c -0.24609,1.98413 -1.93799,3.47607 -3.9375,3.46069 -2.63013,-0.0154 -4.75269,-2.13794 -4.76807,-4.76806 V 181.125 h 14.41186 z m 26.73193,-88.51685 -2.39941,0.78442 -8.42871,-39.95947 c -0.44604,-2.12256 -2.52246,-3.47607 -4.64502,-3.03003 -2.13794,0.43066 -3.50684,2.50708 -3.07617,4.64502 L 164.46753,173.25 H 95.40747 l 13.70435,-66.5376 c 0.43066,-2.13794 -0.93824,-4.21436 -3.07617,-4.64502 -2.12256,-0.44604 -4.19898,0.90747 -4.64502,3.03003 l -8.22876,39.95947 -2.39941,-0.78442 c -1.93799,-0.64599 -3.07617,-2.66089 -2.59936,-4.64502 l 8.38257,-35.63745 C 99.45266,91.51612 110.5884,82.6875 123.40065,82.6875 h 13.11987 c 12.7815,0.01538 23.88647,8.81323 26.80884,21.25635 l 8.38257,35.63745 c 0.52295,1.95337 -0.52295,3.96826 -2.39941,4.69116 z"
             id="path1567"
             inkscape:connector-curvature="0"
             style="fill:#8d6c9f" />
          <path
             d="m 87.30176,47.60376 c 5.47559,-0.01538 10.78198,-1.87647 15.07324,-5.27564 0,0.35376 0,0.70752 0,1.06128 0,15.22705 12.33545,27.5625 27.5625,27.5625 15.22705,0 27.5625,-12.33545 27.5625,-27.5625 0,-0.35376 0,-0.70752 0,-1.06128 4.29126,3.41455 9.59766,5.27564 15.07324,5.27564 5.3833,0 10.59741,-1.75342 14.88867,-4.99878 0.86133,-0.646 1.43042,-1.61499 1.55347,-2.69165 0.12305,-1.07666 -0.18457,-2.15332 -0.87671,-2.98389 L 174.71118,20.87182 c -4.89112,-5.90625 -13.5813,-6.92138 -19.6875,-2.29175 l -6.30615,4.7373 c -10.59741,-9.95142 -27.11645,-9.95142 -37.71387,0 l -6.30615,-4.7373 c -6.12158,-4.62964 -14.79639,-3.6145 -19.6875,2.29175 L 71.78247,36.89868 c -0.67676,0.86133 -0.95362,1.95337 -0.78442,3.03003 0.15381,1.09204 0.75366,2.0918 1.64575,2.75317 4.21435,3.18384 9.36694,4.92188 14.65796,4.92188 z m 72.52075,-22.71753 c 2.75317,-2.06104 6.61377,-1.59961 8.81323,1.01513 l 10.39746,12.48926 c -6.70605,2.86084 -14.48877,0.98438 -19.16455,-4.61426 l -4.61426,-5.50635 z M 129.9375,23.625 c 10.87427,0 19.6875,8.81323 19.6875,19.6875 C 149.625,54.18677 140.81177,63 129.9375,63 119.06323,63 110.25,54.18677 110.25,43.3125 c 0,-10.87427 8.81323,-19.6875 19.6875,-19.6875 z m -38.74439,2.24561 c 2.19946,-2.63013 6.07544,-3.07617 8.81324,-1.03052 l 4.53735,3.39917 -4.61426,5.50635 c -4.6604,5.61401 -12.45849,7.49048 -19.16455,4.59887 z"
             id="path1569"
             inkscape:connector-curvature="0"
             style="fill:#8d6c9f" />
        </g>
      </g>
      <path
         d="M 126,252 C 56.41212,252 0,195.58788 0,126 v 0 C 0,56.41212 56.41212,0 126,0 v 0 c 69.58788,0 126,56.41212 126,126 v 0 c 0,69.58788 -56.41212,126 -126,126 z"
         id="path1574"
         inkscape:connector-curvature="0"
         style="fill:none" />
      <path
         d="M 126,246.96 C 59.19564,246.96 5.04,192.80436 5.04,126 v 0 C 5.04,59.19564 59.19564,5.04 126,5.04 v 0 c 66.80436,0 120.96,54.15564 120.96,120.96 v 0 c 0,66.80436 -54.15564,120.96 -120.96,120.96 z"
         id="path1576"
         inkscape:connector-curvature="0"
         style="fill:none" />
      <path
         d=""
         id="path1578"
         inkscape:connector-curvature="0"
         style="fill:none" />
      <path
         d=""
         id="path1580"
         inkscape:connector-curvature="0"
         style="fill:none" />
      <path
         d=""
         id="path1582"
         inkscape:connector-curvature="0"
         style="fill:none" />
      <path
         d="M 126,252 C 56.41212,252 0,195.58788 0,126 v 0 C 0,56.41212 56.41212,0 126,0 v 0 c 69.58788,0 126,56.41212 126,126 v 0 c 0,69.58788 -56.41212,126 -126,126 z"
         id="path1584"
         inkscape:connector-curvature="0"
         style="fill:none" />
      <path
         d="M 126,246.96 C 59.19564,246.96 5.04,192.80436 5.04,126 v 0 C 5.04,59.19564 59.19564,5.04 126,5.04 v 0 c 66.80436,0 120.96,54.15564 120.96,120.96 v 0 c 0,66.80436 -54.15564,120.96 -120.96,120.96 z"
         id="path1586"
         inkscape:connector-curvature="0"
         style="fill:none" />
      <g
         id="g1595"
         transform="matrix(0.44793157,0,0,0.44793157,118.99494,-37.520036)">
        <g
           id="Layer_1" />
      </g>
    </g>
  </g>
</svg>
